# xmcd
#
# Track frame offsets:
#	150
#	26674
#	41343
#	62294
#	73945
#	95637
#	106524
#	128826
#	140989
#	161422
#	181391
#	199851
#	209119
#	219087
#	233930
#	247614
#	263369
#	272987
#	289675
#	316679
#
# Disc length: 4386 seconds
#
# Revision: 0
# Processed by: cddbd v1.5.1PL0 Copyright (c) Steve Scherf et al.
# Submitted via: EZCDDA 4.3.3.2
#
DISCID=1e112014
DTITLE=Rock&Pop - Blues 3
DYEAR=1900
DGENRE=
TTITLE0=Eric Bell/Baby please don't go
TTITLE1=Steel Blues/Born under a bad sign
TTITLE2=Albert King and John Lee Hooker/King snake
TTITLE3=Ike and Tina Turner/Poor fool
TTITLE4=John Lee Hooker/One room country shack
TTITLE5=Muddy waters/Key to the highway
TTITLE6=Albert King/Angel of mercy
TTITLE7=Big Joe Williams/Ride in my new car
TTITLE8=The Clifton Chenier Band/Hush hush
TTITLE9=Aretha Franklin/There is a fountain
TTITLE10=Bo Wilson Band/Chevrolet
TTITLE11=Canned Heat/Big road blues
TTITLE12=Irma Thomas/Wish someone would care
TTITLE13=Jimmi Hendrix/Keep a knockin'
TTITLE14=Chuck Berry/In the wee wee hours
TTITLE15=B. B. King/The letter
TTITLE16=Koko Taylor/Love you like a woman
TTITLE17=Jelly Roll Morton/Dead Man Blues
TTITLE18=Luther Allison/Early in the morning
TTITLE19=Eric Clapton/Good morning little school girl
EXTD=
EXTT0=
EXTT1=
EXTT2=
EXTT3=
EXTT4=
EXTT5=
EXTT6=
EXTT7=
EXTT8=
EXTT9=
EXTT10=
EXTT11=
EXTT12=
EXTT13=
EXTT14=
EXTT15=
EXTT16=
EXTT17=
EXTT18=
EXTT19=
PLAYORDER=
